<svg xmlns="http://www.w3.org/2000/svg" xmlns:svg="http://www.w3.org/2000/svg" xmlns:xlink="http://www.w3.org/1999/xlink" id="svg2383" width="64" height="64" version="1.0" style="display:inline"><defs id="defs2385"><linearGradient id="linearGradient4986"><stop id="stop4988" offset="0" style="stop-color:#000;stop-opacity:.48648649"/><stop id="stop4990" offset="1" style="stop-color:#5e5e5e;stop-opacity:.21621622"/></linearGradient><linearGradient id="linearGradient4931"><stop id="stop4933" offset="0" style="stop-color:#f46363;stop-opacity:1"/><stop id="stop4935" offset="1" style="stop-color:#9f0000;stop-opacity:1"/></linearGradient><linearGradient id="linearGradient4793"><stop id="stop4795" offset="0" style="stop-color:#edb6b6;stop-opacity:1"/><stop id="stop4797" offset="1" style="stop-color:#a00;stop-opacity:1"/></linearGradient><linearGradient id="linearGradient4775"><stop style="stop-color:#edb6b6;stop-opacity:1" id="stop4777" offset="0"/><stop style="stop-color:#a00;stop-opacity:1" id="stop4779" offset="1"/></linearGradient><linearGradient id="linearGradient4737"><stop style="stop-color:#083de2;stop-opacity:1" id="stop4739" offset="0"/><stop id="stop5312" offset=".564" style="stop-color:#0638d7;stop-opacity:1"/><stop style="stop-color:#041f78;stop-opacity:1" id="stop4741" offset="1"/></linearGradient><linearGradient id="linearGradient4725"><stop style="stop-color:#000;stop-opacity:1" id="stop4727" offset="0"/><stop style="stop-color:#545454;stop-opacity:1" id="stop4729" offset="1"/></linearGradient><linearGradient id="linearGradient3205"><stop style="stop-color:#fff;stop-opacity:1" id="stop3207" offset="0"/><stop id="stop5314" offset=".333" style="stop-color:#fff;stop-opacity:1"/><stop style="stop-color:gray;stop-opacity:1" id="stop3209" offset="1"/></linearGradient><radialGradient id="radialGradient4765" cx="29.511" cy="23.535" r="26.856" fx="29.511" fy="23.535" gradientTransform="matrix(1.1743548,-2.9620861e-2,1.3511579e-2,0.5356829,-5.9207362,14.816771)" gradientUnits="userSpaceOnUse" xlink:href="#linearGradient3205"/><linearGradient id="linearGradient4767" x1="27.027" x2="29.22" y1="21.026" y2="42.758" gradientTransform="translate(-0.3239817,-0.7438881)" gradientUnits="userSpaceOnUse" xlink:href="#linearGradient4725"/><radialGradient id="radialGradient4769" cx="29.727" cy="27.727" r="13.79" fx="29.727" fy="27.727" gradientTransform="matrix(1.1363636,0,0,1.0989082,-3.4145312,-2.4356424)" gradientUnits="userSpaceOnUse" xlink:href="#linearGradient4737"/><linearGradient id="linearGradient4771" x1="27.027" x2="29.22" y1="21.026" y2="42.758" gradientTransform="translate(-35.422191,-12.186161)" gradientUnits="userSpaceOnUse" xlink:href="#linearGradient4725"/><linearGradient id="linearGradient4929" x1="15.568" x2="43.591" y1="5.25" y2="47.773" gradientUnits="userSpaceOnUse" xlink:href="#linearGradient4931"/><linearGradient id="linearGradient4959" x1="27.027" x2="29.22" y1="21.026" y2="42.758" gradientTransform="translate(-29.379642,-17.200191)" gradientUnits="userSpaceOnUse" xlink:href="#linearGradient4725"/><clipPath id="clipPath4966" clipPathUnits="userSpaceOnUse"><path id="path4968" d="M 1.5261376,29.127791 C 1.5261376,29.127791 18.797327,17.997929 29.810162,17.775758 C 40.822997,17.553587 67.282499,30.508444 67.282499,30.508444 C 67.282499,30.508444 40.555197,41.353398 29.41067,41.323556 C 18.346041,41.293928 1.5261376,29.127791 1.5261376,29.127791 z" style="fill:none;fill-opacity:1;fill-rule:evenodd;stroke:url(#linearGradient4970);stroke-width:2;stroke-linecap:butt;stroke-linejoin:miter;stroke-miterlimit:4;stroke-dasharray:none;stroke-opacity:1"/></clipPath><linearGradient id="linearGradient4970" x1="27.027" x2="29.22" y1="21.026" y2="42.758" gradientTransform="translate(-0.3239817,-0.743888)" gradientUnits="userSpaceOnUse" xlink:href="#linearGradient4725"/><radialGradient id="radialGradient4974" cx="29.727" cy="27.727" r="13.79" fx="29.727" fy="27.727" gradientTransform="matrix(1.1363636,0,0,1.0989082,-4.8527018,-1.822019)" gradientUnits="userSpaceOnUse" xlink:href="#linearGradient4737"/><linearGradient id="linearGradient4984" x1="25.456" x2="25.456" y1="22.471" y2="31.342" gradientUnits="userSpaceOnUse" xlink:href="#linearGradient4986"/><filter id="filter5144"><feGaussianBlur id="feGaussianBlur5146" stdDeviation=".356"/></filter><linearGradient id="linearGradient5308" x1="27.027" x2="29.22" y1="21.026" y2="42.758" gradientTransform="translate(-0.3239817,-0.7438881)" gradientUnits="userSpaceOnUse" xlink:href="#linearGradient4725"/><linearGradient id="linearGradient5318" x1="25.456" x2="25.456" y1="22.471" y2="31.342" gradientTransform="matrix(1,0,0,-1,-2.0570379,63.326784)" gradientUnits="userSpaceOnUse" xlink:href="#linearGradient4986"/><filter id="filter5360"><feGaussianBlur id="feGaussianBlur5362" stdDeviation=".359"/></filter></defs><metadata id="metadata2388"/><g id="layer1" style="display:inline"><g id="g4915" style="fill:url(#linearGradient4929);fill-opacity:1"><path id="path4851" d="M 18.363637,4.5454545 L 45.727273,4.5454545 L 32.272727,30.727273 L 18.363637,4.5454545 z" style="fill:url(#linearGradient4929);fill-opacity:1;fill-rule:evenodd;stroke:#000;stroke-width:1.5;stroke-linecap:butt;stroke-linejoin:miter;stroke-miterlimit:4;stroke-dasharray:none;stroke-opacity:1"/><path id="path4861" d="M 48.454546,7.2727272 L 62.363637,30.09091 L 36.000001,30.000001 L 48.454546,7.2727272 z" style="fill:url(#linearGradient4929);fill-opacity:1;fill-rule:evenodd;stroke:#000;stroke-width:1.5;stroke-linecap:butt;stroke-linejoin:miter;stroke-miterlimit:4;stroke-dasharray:none;stroke-opacity:1"/><path id="path4881" d="M 15.500001,7.2272726 L 1.5909091,30.045455 L 27.772728,29.954546 L 15.500001,7.2272726 z" style="fill:url(#linearGradient4929);fill-opacity:1;fill-rule:evenodd;stroke:#000;stroke-width:1.5;stroke-linecap:butt;stroke-linejoin:miter;stroke-miterlimit:4;stroke-dasharray:none;stroke-opacity:1;display:inline"/><path id="path4897" d="M 18.386364,59.727273 L 45.75,59.727273 L 32.295454,33.545455 L 18.386364,59.727273 z" style="fill:url(#linearGradient4929);fill-opacity:1;fill-rule:evenodd;stroke:#000;stroke-width:1.5;stroke-linecap:butt;stroke-linejoin:miter;stroke-miterlimit:4;stroke-dasharray:none;stroke-opacity:1;display:inline"/><path id="path4899" d="M 48.477273,57.000001 L 62.386364,34.181818 L 36.022728,34.272727 L 48.477273,57.000001 z" style="fill:url(#linearGradient4929);fill-opacity:1;fill-rule:evenodd;stroke:#000;stroke-width:1.5;stroke-linecap:butt;stroke-linejoin:miter;stroke-miterlimit:4;stroke-dasharray:none;stroke-opacity:1;display:inline"/><path id="path4901" d="M 15.522728,57.045455 L 1.6136362,34.227273 L 27.795455,34.318182 L 15.522728,57.045455 z" style="fill:url(#linearGradient4929);fill-opacity:1;fill-rule:evenodd;stroke:#000;stroke-width:1.5;stroke-linecap:butt;stroke-linejoin:miter;stroke-miterlimit:4;stroke-dasharray:none;stroke-opacity:1;display:inline"/></g></g><g id="layer3" style="opacity:1;display:inline"><path style="fill:url(#radialGradient4765);fill-opacity:1;fill-rule:evenodd;stroke:none;stroke-width:2;stroke-linecap:butt;stroke-linejoin:miter;stroke-miterlimit:4;stroke-dasharray:none;stroke-opacity:1" id="path2431" d="M 6.1685442,30.664918 C 6.1685442,30.664918 20.064123,21.337312 28.924527,21.151117 C 37.784931,20.964922 59.072989,31.822002 59.072989,31.822002 C 59.072989,31.822002 37.569472,40.910835 28.603115,40.885825 C 19.70104,40.860995 6.1685442,30.664918 6.1685442,30.664918 z"/><path style="stroke:url(#radialGradient4974);stroke-width:5.14089823;stroke-linejoin:miter;stroke-miterlimit:4;stroke-dasharray:none;stroke-opacity:1" id="path4735" d="M 41.090908,27.727272 A 11.363636,10.909091 0 1 1 18.363636,27.727272 A 11.363636,10.909091 0 1 1 41.090908,27.727272 z" clip-path="url(#clipPath4966)" transform="matrix(0.8045525,0,0,0.8380702,5.8406405,5.8680897)"/><path style="fill:url(#linearGradient4984);fill-opacity:1;fill-rule:evenodd;stroke:none;stroke-width:1px;stroke-linecap:butt;stroke-linejoin:miter;stroke-opacity:1;filter:url(#filter5144)" id="path4976" d="M 6.6853733,30.958828 C 6.6853733,30.958828 20.32321,21.213477 28.541402,20.930769 C 36.759594,20.64806 57.982756,32.244477 57.982756,32.244477 C 57.982756,32.244477 36.258171,22.980453 26.870058,24.273456 C 17.498472,25.564182 6.6853733,30.958828 6.6853733,30.958828 z"/><path id="path4972" d="M 6.1685442,30.664918 C 6.1685442,30.664918 20.064123,21.337312 28.924527,21.151117 C 37.784931,20.964922 59.072989,31.822002 59.072989,31.822002 C 59.072989,31.822002 37.569472,40.910835 28.603115,40.885825 C 19.70104,40.860995 6.1685442,30.664918 6.1685442,30.664918 z" style="fill:none;fill-opacity:1;fill-rule:evenodd;stroke:url(#linearGradient5308);stroke-width:2;stroke-linecap:butt;stroke-linejoin:miter;stroke-miterlimit:4;stroke-dasharray:none;stroke-opacity:1"/><path id="path5316" d="M 5.01403,32.244476 C 5.01403,32.244476 19.294691,21.727736 27.512883,21.445028 C 35.731075,21.162319 56.697107,31.987347 56.697107,31.987347 C 56.697107,31.987347 35.229652,23.494712 25.841539,24.787715 C 16.469953,26.078441 5.01403,32.244476 5.01403,32.244476 z" transform="matrix(1,0,0,-1,2.0570379,63.326784)" style="fill:url(#linearGradient5318);fill-opacity:1;fill-rule:evenodd;stroke:none;stroke-width:1px;stroke-linecap:butt;stroke-linejoin:miter;stroke-opacity:1;filter:url(#filter5360)"/></g></svg>