<svg xmlns="http://www.w3.org/2000/svg" xmlns:svg="http://www.w3.org/2000/svg" id="svg2383" width="64" height="64" version="1.0"><path id="path3220" d="M 5,30 L 5,34 L 10,34 L 10,30 L 5,30 z M 13,30 L 13,34 L 18,34 L 18,30 L 13,30 z M 21,30 L 21,34 L 26,34 L 26,30 L 21,30 z M 29,30 L 29,34 L 34,34 L 34,30 L 29,30 z M 37,30 L 37,34 L 42,34 L 42,30 L 37,30 z M 45,30 L 45,34 L 50,34 L 50,30 L 45,30 z" style="fill:green;stroke:green;stroke-width:2;stroke-linecap:round;stroke-linejoin:round"/><path id="path3138" d="M 58,14 L 58,18 L 54,18 L 54,46 L 58,46 L 58,50 L 50,50 L 50,14 L 58,14 z" style="fill:#00f;stroke:#00f;stroke-width:2;stroke-linecap:round;stroke-linejoin:round"/></svg>