<svg xmlns="http://www.w3.org/2000/svg" xmlns:svg="http://www.w3.org/2000/svg" id="svg2385" width="64" height="64" version="1.0"><path id="rect3182" d="M 3,29 L 4.5,30 L 4.5,40 L 3,41 L 3,29 z" style="fill:#025;stroke:#025;stroke-width:2;stroke-linecap:round;stroke-linejoin:round"/><path id="path2398" d="M 37,17 L 61,35 L 27,59 L 3,41 L 37,17 z" style="fill:#2a7fff;stroke:#025;stroke-width:2;stroke-linecap:round;stroke-linejoin:round"/><path id="rect3179" d="M 4.5,30.5 L 27,45.5 L 59,25 L 59,35 L 27,57.5 L 4.5,40.5 L 4.5,30.5 z" style="fill:#fff;stroke:gray;stroke-width:1;stroke-linecap:round;stroke-linejoin:round"/><path id="path2452" d="M 27,47.5 L 27,57.5" style="fill:none;stroke:gray;stroke-width:1;stroke-linecap:round;stroke-linejoin:round"/><path id="rect2395" d="M 37,5 L 61,23 L 27,47 L 3,29 L 37,5 z" style="fill:#2a7fff;stroke:#025;stroke-width:2;stroke-linecap:round;stroke-linejoin:round"/><path id="path3312" d="M 37.1,14.2 C 35.1,14.2 33.5,15.9 35.5,17.5 C 37.5,19 42,19 41,22 C 40.5,23.5 37.5,23 35.5,23 C 32.5,23 30,23.5 28.5,24 C 27,24.5 26,25.5 25.5,26 L 28.5,28.5 C 29.5,27.5 30,27.5 32,27 C 36,26.5 41.5,27.5 44.5,24.5 C 49,20 42.5,16 38.5,14.5 C 38,14.3 37.6,14.2 37.1,14.2 z M 22,29 C 20.5,29 19,30 19,31.5 C 19,33 20.5,34 22,34 C 23.5,34 25,33 25,31.5 C 25,30 23.5,29 22,29 z" style="fill:#ff0;stroke:#ff0;stroke-width:2;stroke-linecap:round;stroke-linejoin:round"/></svg>