<svg xmlns="http://www.w3.org/2000/svg" xmlns:svg="http://www.w3.org/2000/svg" xmlns:xlink="http://www.w3.org/1999/xlink" id="svg2385" width="64" height="64" version="1.0"><defs id="defs2387"><linearGradient id="linearGradient2684"><stop id="stop2686" offset="0" style="stop-color:#04a;stop-opacity:1"/><stop id="stop2692" offset=".5" style="stop-color:#06f;stop-opacity:1"/><stop id="stop2688" offset="1" style="stop-color:#acf;stop-opacity:1"/></linearGradient><linearGradient id="linearGradient2690" x1="9" x2="56" y1="11.5" y2="11.5" gradientUnits="userSpaceOnUse" xlink:href="#linearGradient2684"/><linearGradient id="linearGradient2425"><stop id="stop2427" offset="0" style="stop-color:#fff;stop-opacity:1"/><stop id="stop2429" offset="1" style="stop-color:#04a;stop-opacity:1"/></linearGradient><radialGradient id="radialGradient2669" cx="-46" cy="26" r="29" fx="-46" fy="26" gradientTransform="matrix(-1.6,2,-1.9,-1.5,-13.1,152.2)" gradientUnits="userSpaceOnUse" xlink:href="#linearGradient2425"/></defs><path id="rect2636" d="M 4,6 L 60,6 L 60,58 L 4,58 L 4,6 z" style="fill:#fff;stroke:#000;stroke-width:2;stroke-linecap:round;stroke-linejoin:round"/><path id="path2603" d="M 4,6 L 4,17 L 60,17 L 60,6 L 4,6 z" style="fill:url(#linearGradient2690);stroke:navy;stroke-width:2;stroke-linecap:round;stroke-linejoin:round"/><path id="path2601" d="M 7,9 L 7,14 L 12,14 L 12,9 L 7,9 z M 45.5,9 L 45.5,14 L 50.5,14 L 50.5,9 L 45.5,9 z M 52,9 L 52,14 L 57,14 L 57,9 L 52,9 z" style="fill:#b3b3b3;stroke:navy;stroke-width:1;stroke-linecap:round;stroke-linejoin:round"/><path id="rect2380" d="M 18,23 L 46,23 C 49.5,23 52,25.5 52,29 L 52,47 C 52,50.5 49.5,53 46,53 L 18,53 C 14.5,53 12,50.5 12,47 L 12,29 C 12,25.5 14.5,23 18,23 z" style="fill:url(#radialGradient2669);stroke:#000;stroke-width:2;stroke-linecap:round;stroke-linejoin:round"/></svg>