<svg xmlns="http://www.w3.org/2000/svg" xmlns:svg="http://www.w3.org/2000/svg" xmlns:xlink="http://www.w3.org/1999/xlink" id="svg2385" width="64" height="64" version="1.0"><defs id="defs2387"><linearGradient id="linearGradient2684"><stop id="stop2686" offset="0" style="stop-color:#04a;stop-opacity:1"/><stop id="stop2692" offset=".5" style="stop-color:#06f;stop-opacity:1"/><stop id="stop2688" offset="1" style="stop-color:#acf;stop-opacity:1"/></linearGradient><linearGradient id="linearGradient2395" x1="9" x2="56" y1="11.5" y2="11.5" gradientTransform="matrix(0.5,0,0,0.5,0.5,0.5)" gradientUnits="userSpaceOnUse" xlink:href="#linearGradient2684"/></defs><path id="path2547" d="M 44,32 L 44,38 L 38,38 L 38,62 L 56,62 L 56,56 L 62,56 L 62,38 L 56,32 L 44,32 z" style="fill:#fff;stroke:#000;stroke-width:2;stroke-linecap:round;stroke-linejoin:round"/><path id="path3298" d="M 34.5,7 L 34.5,14 L 45,14 C 47,14 48,15 48,17 L 48,20 L 41.5,20 L 51.5,30 L 61.5,20 L 55,20 L 55,17 C 55,11 51,7 45,7 L 34.5,7 z M 13,33 L 13,43.5 C 13,49.5 17,53.5 23,53.5 L 26,53.5 L 26,60 L 36,50 L 26,40 L 26,46.5 L 23,46.5 C 21,46.5 20,45.5 20,43.5 L 20,33 L 13,33 z" style="fill:#2aff2a;stroke:#000;stroke-width:1;stroke-linecap:round;stroke-linejoin:round"/><path id="path2433" d="M 56,32 L 56,38 L 62,38 L 56,32 z" style="fill:#b3b3b3;stroke:#000;stroke-width:2;stroke-linecap:round;stroke-linejoin:round"/><path id="path2530" d="M 44,38 L 44,56 L 56,56" style="fill:none;stroke:#000;stroke-width:2;stroke-linecap:round;stroke-linejoin:round"/><path id="rect2636" d="M 2.5,3.5 L 30.5,3.5 L 30.5,29.5 L 2.5,29.5 L 2.5,3.5 z" style="fill:#fff;stroke:#000;stroke-width:2;stroke-linecap:round;stroke-linejoin:round"/><path id="path2603" d="M 2.5,3.5 L 2.5,9 L 30.5,9 L 30.5,3.5 L 2.5,3.5 z" style="fill:url(#linearGradient2395);stroke:navy;stroke-width:2;stroke-linecap:round;stroke-linejoin:round"/><path id="path2601" d="M 4,5 L 4,7.5 L 6.5,7.5 L 6.5,5 L 4,5 z M 23.25,5 L 23.25,7.5 L 25.75,7.5 L 25.75,5 L 23.25,5 z M 26.5,5 L 26.5,7.5 L 29,7.5 L 29,5 L 26.5,5 z" style="fill:#b3b3b3;stroke:navy;stroke-width:.5;stroke-linecap:round;stroke-linejoin:round"/></svg>