<svg xmlns="http://www.w3.org/2000/svg" xmlns:svg="http://www.w3.org/2000/svg" id="svg2385" width="64" height="64" version="1.0"><path id="path3185" d="M 6.4998137,54.500186 C 7.9998137,53.000186 10.999814,56.000186 9.4998137,57.500186" style="fill:none;stroke:#333;stroke-width:1;stroke-linecap:round;stroke-linejoin:round"/><path id="path3183" d="M 50,7 C 55,2 62,9 57,14 L 51,20 L 44,13 L 50,7 z" style="fill:gray;stroke:#000;stroke-width:1;stroke-linecap:round;stroke-linejoin:round"/><path id="path2403" d="M 53.5,28.5 L 49.5,32.5 L 31.5,14.5 L 35.5,10.5 C 43.5,2.5 61.5,20.5 53.5,28.5 z" style="fill:gray;stroke:#000;stroke-width:1;stroke-linecap:round;stroke-linejoin:round"/><path id="path2380" d="M 49.5,32.5 C 41.5,40.5 23.5,22.5 31.5,14.5 C 39.5,6.5 57.5,24.5 49.5,32.5 z" style="fill:#4d4d4d;stroke:#000;stroke-width:1;stroke-linecap:round;stroke-linejoin:round"/><path id="path2405" d="M 35.5,10.5 C 27.5,18.5 45.5,36.5 53.5,28.5" style="fill:none;stroke:#000;stroke-width:1;stroke-linecap:round;stroke-linejoin:round"/><path id="path3181" d="M 38.999814,19.000186 C 41.999814,16.000186 47.999814,22.000186 44.999814,25.000186 L 18.999814,51.000186 C 17.999814,52.000186 13.999814,53.000186 9.4998137,57.500186 C 7.9998137,59.000186 4.9998137,56.000186 6.4998137,54.500186 C 10.999814,50.000186 11.999814,46.000186 12.999814,45.000186 L 38.999814,19.000186 z" style="fill:#fff;fill-opacity:.5;stroke:#000;stroke-width:1;stroke-linecap:round;stroke-linejoin:round"/></svg>