<svg xmlns="http://www.w3.org/2000/svg" xmlns:svg="http://www.w3.org/2000/svg" id="svg2385" width="64" height="64" version="1.0"><path id="path3220" d="M 21,9 C 18,9 14,10 14,12 L 14,28 L 28,28 L 28,12 C 28,10 24,9 21,9 z M 43,9 C 40,9 36,10 36,12 L 36,28 L 50,28 L 50,12 C 50,10 46,9 43,9 z" style="fill:#606060;stroke:#000;stroke-width:1;stroke-linecap:round;stroke-linejoin:round"/><path id="path3186" d="M 16,23 C 12,23 6,24 6,26 L 6,52 L 26,52 L 26,26 C 26,24 20,23 16,23 z M 48,23 C 44,23 38,24 38,26 L 38,52 L 58,52 L 58,26 C 58,24 52,23 48,23 z" style="fill:#606060;stroke:#000;stroke-width:1;stroke-linecap:round;stroke-linejoin:round"/><path id="rect3200" d="M 16,30 L 22,26 L 42,26 L 48,30 L 48,42 C 44,42 38,43 38,45 L 26,45 C 26,43 20,42 16,42 L 16,30 z" style="fill:#606060;stroke:#000;stroke-width:1;stroke-linecap:round;stroke-linejoin:round"/><path id="rect3194" d="M 28,42 C 28,39.5 36,39.5 36,42 L 36,46 L 28,46 L 28,42 z" style="fill:#606060;stroke:#000;stroke-width:1;stroke-linecap:round;stroke-linejoin:round"/><path id="path3239" d="M 28,46 C 28,48 36,48 36,46 C 36,44 28,44 28,46 z" style="fill:#606060;stroke:#000;stroke-width:1;stroke-linecap:round;stroke-linejoin:round"/><path id="path3237" d="M 6,52 C 6,56 26,56 26,52 C 26,48 6,48 6,52 z M 38,52 C 38,56 58,56 58,52 C 58,48 38,48 38,52 z" style="fill:#2a7fff;stroke:#000;stroke-width:1;stroke-linecap:round;stroke-linejoin:round"/><path id="path3231" d="M 22,38 L 22,26 M 16,42 L 22,38 L 42,38 L 48,42 M 42,26 L 42,38" style="fill:none;stroke:#000;stroke-width:1;stroke-linecap:round;stroke-linejoin:round"/></svg>