<svg xmlns="http://www.w3.org/2000/svg" xmlns:svg="http://www.w3.org/2000/svg" id="svg2385" width="64" height="64" version="1.0"><path id="path3220" d="M 12.5,4.5 C 11,4.5 9,5 9,6 L 9,14 L 16,14 L 16,6 C 16,5 14,4.5 12.5,4.5 z M 23.5,4.5 C 22,4.5 20,5 20,6 L 20,14 L 27,14 L 27,6 C 27,5 25,4.5 23.5,4.5 z" style="fill:#606060;stroke:#000;stroke-width:1;stroke-linecap:round;stroke-linejoin:round"/><path id="path3186" d="M 10,11.5 C 8,11.5 5,12 5,13 L 5,26 L 15,26 L 15,13 C 15,12 12,11.5 10,11.5 z M 26,11.5 C 24,11.5 21,12 21,13 L 21,26 L 31,26 L 31,13 C 31,12 28,11.5 26,11.5 z" style="fill:#606060;stroke:#000;stroke-width:1;stroke-linecap:round;stroke-linejoin:round"/><path id="rect3200" d="M 10,15 L 13,13 L 23,13 L 26,15 L 26,21 C 24,21 21,21.5 21,22.5 L 15,22.5 C 15,21.5 12,21 10,21 L 10,15 z" style="fill:#606060;stroke:#000;stroke-width:1;stroke-linecap:round;stroke-linejoin:round"/><path id="rect3194" d="M 16,21 C 16,19.75 20,19.75 20,21 L 20,23 L 16,23 L 16,21 z" style="fill:#606060;stroke:#000;stroke-width:1;stroke-linecap:round;stroke-linejoin:round"/><path id="path3239" d="M 16,23 C 16,24 20,24 20,23 C 20,22 16,22 16,23 z" style="fill:#606060;stroke:#000;stroke-width:1;stroke-linecap:round;stroke-linejoin:round"/><path id="path3237" d="M 5,26 C 5,28 15,28 15,26 C 15,24 5,24 5,26 z M 21,26 C 21,28 31,28 31,26 C 31,24 21,24 21,26 z" style="fill:#2a7fff;stroke:#000;stroke-width:1;stroke-linecap:round;stroke-linejoin:round"/><path id="path3231" d="M 13,19 L 13,13 M 10,21 L 13,19 L 23,19 L 26,21 M 23,13 L 23,19" style="fill:none;stroke:#000;stroke-width:1;stroke-linecap:round;stroke-linejoin:round"/><path id="rect2389" d="M 36,28 L 52,28 L 60,36 L 60,60 L 36,60 L 36,28 z" style="fill:#fff;stroke:#000;stroke-width:2;stroke-linecap:round;stroke-linejoin:round"/><path id="path2465" d="M 54,40 L 42,40 M 54,46 L 42,46 M 54,52 L 42,52" style="fill:#ccc;stroke:#000;stroke-width:1;stroke-linecap:round;stroke-linejoin:round"/><path id="path2392" d="M 52,28 L 52,36 L 60,36 L 52,28 z" style="fill:#ccc;stroke:#000;stroke-width:2;stroke-linecap:round;stroke-linejoin:round"/><path id="path3298" d="M 9.5,33 L 9.5,43.5 C 9.5,49.5 13.5,53.5 19.5,53.5 L 22.5,53.5 L 22.5,60 L 32.5,50 L 22.5,40 L 22.5,46.5 L 19.5,46.5 C 17.5,46.5 16.5,45.5 16.5,43.5 L 16.5,33 L 9.5,33 z" style="fill:#2aff2a;stroke:#000;stroke-width:1;stroke-linecap:round;stroke-linejoin:round"/><path id="path2394" d="M 48,48 L 32,32 L 28,36 L 44,52 L 48,48 z" style="fill:#fc0;stroke:#f60;stroke-width:1;stroke-linecap:round;stroke-linejoin:round"/><path id="path2396" d="M 50,54 L 48,48 L 44,52 L 50,54 z" style="fill:#deaa87;stroke:#784421;stroke-width:1;stroke-linecap:round;stroke-linejoin:round"/><path id="path2398" d="M 34,34 L 30,38 L 28,36 L 32,32 L 34,34 z" style="fill:#f55;stroke:maroon;stroke-width:1;stroke-linecap:round;stroke-linejoin:round"/></svg>