<svg xmlns="http://www.w3.org/2000/svg" xmlns:svg="http://www.w3.org/2000/svg" id="svg2385" width="64" height="64" version="1.0"><path id="path3161" d="M 6,6 L 32,6 L 32,42 L 6,42 L 6,6 z" style="fill:#fff;stroke:#025;stroke-width:2;stroke-linecap:round;stroke-linejoin:round"/><path id="rect2382" d="M 12,12 L 38,12 L 38,48 L 12,48 L 12,12 z" style="fill:#fff;stroke:#003380;stroke-width:2;stroke-linecap:round;stroke-linejoin:round"/><path id="path3165" d="M 18,18 L 44,18 L 44,54 L 18,54 L 18,18 z" style="fill:#fff;stroke:#0055d4;stroke-width:2;stroke-linecap:round;stroke-linejoin:round"/><path id="path3167" d="M 39,26 L 39,30.5 L 38.5,30.5 C 38.5,26.5 35.5,27 32.5,27 L 32.5,42 C 32.5,44 33.5,44.5 35.5,44.5 L 35.5,45 L 26.5,45 L 26.5,44.5 C 28.5,44.5 29.5,44 29.5,42 L 29.5,27 C 26.5,27 23.5,26.5 23.5,30.5 L 23,30.5 L 23,26 L 39,26 z" style="fill:#0055d4;stroke:#0055d4;stroke-width:1;stroke-linecap:butt;stroke-linejoin:miter;stroke-miterlimit:4"/><path id="path3192" d="M 44,33 L 44,36.5 C 45.932,36.5 47.5,38.068 47.5,40 C 47.5,41.932 45.932,43.5 44,43.5 C 42.413,43.5 41.084713,42.448677 40.65625,41 L 37.09375,41 C 37.581309,44.388751 40.476998,47 44,47 C 47.173187,47 49.861108,44.896212 50.71875,42 L 60,42 L 60,38 L 50.71875,38 C 49.861108,35.103788 47.173187,33 44,33 z" style="fill:#999;stroke:#333;stroke-width:1;stroke-linecap:butt;stroke-linejoin:round"/><path id="path3203" d="M 44,32 L 44,38" style="fill:none;stroke:#0055d4;stroke-width:2;stroke-linecap:round;stroke-linejoin:round"/></svg>