<svg xmlns="http://www.w3.org/2000/svg" xmlns:svg="http://www.w3.org/2000/svg" id="svg2385" width="64" height="64" version="1.0"><path id="path2416" d="M 46,10 L 54,22 L 54,54 L 46,38 L 46,10 z" style="fill:#535d6c;stroke:#000;stroke-width:1;stroke-linecap:round;stroke-linejoin:round"/><path id="path2412" d="M 18,10 L 10,24 L 10,54 L 18,38 L 18,10 z" style="fill:#dbdee3;stroke:#000;stroke-width:1;stroke-linecap:round;stroke-linejoin:round"/><path id="path2414" d="M 10,54 L 18,38 C 26,40 38,40 46,38 L 54,54 L 10,54 z" style="fill:#6f7c91;stroke:#000;stroke-width:1;stroke-linecap:round;stroke-linejoin:round"/><path id="path2410" d="M 18,10 C 26,12 38,12 46,10 L 46,38 C 38,40 26,40 18,38 L 18,10 z" style="fill:#b7bec8;stroke:#000;stroke-width:1;stroke-linecap:round;stroke-linejoin:round"/><path id="text3251" d="M 29,26.5 L 29,35.5 L 26,35.5 L 26,14.5 L 29,14.5 L 29,22.5 L 37.5,14.5 L 39.5,16.5 L 31.5,24.5 L 40,33.5 L 38,35.5 L 29,26.5 z" style="fill:#000;stroke:none"/></svg>