<svg xmlns="http://www.w3.org/2000/svg" xmlns:svg="http://www.w3.org/2000/svg" id="svg2385" width="64" height="64" version="1.0"><path id="rect2392" d="M 10,4 L 40,4 L 54,18 L 54,60 L 10,60 L 10,4 z" style="fill:#fff;stroke:#000;stroke-width:2;stroke-linecap:round;stroke-linejoin:round"/><path id="rect3182" d="M 54,18 L 40,18 L 40,4" style="fill:none;stroke:#000;stroke-width:2;stroke-linecap:round;stroke-linejoin:round"/><path id="path2382" d="M 14.5,32.5 L 14.5,45.5 L 19.5,45.5 L 25.5,55.5 L 25.5,22.5 L 19.5,32.5 L 14.5,32.5 z" style="fill:#999;stroke:#000;stroke-width:2;stroke-linecap:round;stroke-linejoin:round"/><path id="path2487" d="M 43.5,21.5 L 42,23 C 46.5,27 49.5,32.5 49.5,39 C 49.5,45.5 46.5,51 42,55 L 43.5,56.5 C 48.5,52.5 51.5,46 51.5,39 C 51.5,32 48.5,25.5 43.5,21.5 z M 37,25 L 35.5,26.5 C 39,29.5 42,34 42,39 C 42,44 39,48.5 35.5,51.5 L 37,53 C 41,49.5 44,44.5 44,39 C 44,33.5 41,28.5 37,25 z M 30.5,28.5 L 29,30 C 31.5,32 34,35.5 34,39 C 34,42.5 31.5,46 29,48 L 30.5,49.5 C 33.5,47 36,43 36,39 C 36,35 33.5,31 30.5,28.5 z" style="fill:#00f;stroke:#00f;stroke-width:1;stroke-linecap:round;stroke-linejoin:round"/></svg>