<svg xmlns="http://www.w3.org/2000/svg" xmlns:svg="http://www.w3.org/2000/svg" id="svg2385" width="64" height="64" version="1.0"><path id="rect2392" d="M 10,4 L 40,4 L 54,18 L 54,60 L 10,60 L 10,4 z" style="fill:#fff;stroke:#000;stroke-width:2;stroke-linecap:round;stroke-linejoin:round"/><path id="rect3182" d="M 54,18 L 40,18 L 40,4" style="fill:none;stroke:#000;stroke-width:2;stroke-linecap:round;stroke-linejoin:round"/><path id="path2382" d="M 32,18.5 C 21.5,18.5 13,27 13,37.5 C 13,48 21.5,56.5 32,56.5 C 42.5,56.5 51,48 51,37.5 C 51,27 42.5,18.5 32,18.5 z" style="fill:gray;stroke:#000;stroke-width:1;stroke-linecap:round;stroke-linejoin:round"/><path id="path2391" d="M 45,37.5 C 45,45 39.5,50.5 32,50.5 C 24.5,50.5 19,45 19,37.5 C 19,30 24.5,24.5 32,24.5 C 39.5,24.5 45,30 45,37.5 z" style="fill:#fff;stroke:#06f;stroke-width:4"/><path id="path2401" d="M 38.5,35.5 L 32,37.5 L 32,28" style="fill:none;stroke:#000;stroke-width:2;stroke-linecap:round;stroke-linejoin:round"/></svg>