<svg xmlns="http://www.w3.org/2000/svg" xmlns:svg="http://www.w3.org/2000/svg" xmlns:xlink="http://www.w3.org/1999/xlink" id="svg2385" width="64" height="64" version="1.0"><defs id="defs2387"><linearGradient id="linearGradient2425"><stop id="stop2427" offset="0" style="stop-color:#fff;stop-opacity:1"/><stop id="stop2429" offset="1" style="stop-color:#04a;stop-opacity:1"/></linearGradient><radialGradient id="radialGradient2479" cx="-50" cy="25" r="29" fx="-50" fy="25" gradientTransform="matrix(-1.6,2,-1.9,-1.5,-19.1,157.2)" gradientUnits="userSpaceOnUse" xlink:href="#linearGradient2425"/></defs><path id="path2474" d="M 8,10 L 56,10 C 58,10 60,12 60,14 L 60,50 C 60,52 58,54 56,54 L 8,54 C 6,54 4,52 4,50 L 4,14 C 4,12 6,10 8,10 z" style="fill:url(#radialGradient2479);stroke:#000;stroke-width:2;stroke-linecap:round;stroke-linejoin:round"/><path id="path2382" d="M 14.5,25.5 L 14.5,38.5 L 19.5,38.5 L 25.5,48.5 L 25.5,15.5 L 19.5,25.5 L 14.5,25.5 z" style="fill:#999;stroke:#000;stroke-width:2;stroke-linecap:round;stroke-linejoin:round"/><path id="path2487" d="M 43.5,14.5 L 42,16 C 46.5,20 49.5,25.5 49.5,32 C 49.5,38.5 46.5,44 42,48 L 43.5,49.5 C 48.5,45.5 51.5,39 51.5,32 C 51.5,25 48.5,18.5 43.5,14.5 z M 37,18 L 35.5,19.5 C 39,22.5 42,27 42,32 C 42,37 39,41.5 35.5,44.5 L 37,46 C 41,42.5 44,37.5 44,32 C 44,26.5 41,21.5 37,18 z M 30.5,21.5 L 29,23 C 31.5,25 34,28.5 34,32 C 34,35.5 31.5,39 29,41 L 30.5,42.5 C 33.5,40 36,36 36,32 C 36,28 33.5,24 30.5,21.5 z" style="fill:#00f;stroke:#00f;stroke-width:1;stroke-linecap:round;stroke-linejoin:round"/></svg>