<svg xmlns="http://www.w3.org/2000/svg" xmlns:svg="http://www.w3.org/2000/svg" id="svg2385" width="64" height="64" version="1.0"><path id="rect3154" d="M 6,18 L 18,18 L 18,22 L 48,22 L 48,54 L 6,54 L 6,18 z" style="fill:#e9ddaf;stroke:#000;stroke-width:2;stroke-linecap:round;stroke-linejoin:round"/><path id="path3157" d="M 16,30 L 58,30 L 48,54 L 6,54 L 16,30 z" style="fill:#d3bc5f;stroke:#000;stroke-width:2;stroke-linecap:round;stroke-linejoin:round"/><path id="path2386" d="M 43.5,5.5 C 36.5,5.5 31,11 31,18 C 31,19.5 33,19.5 33,18 C 33,12 37.5,7.5 43.5,7.5 C 49.5,7.5 54,12 54,18 L 50,18 L 55,26 L 60,18 L 56,18 C 56,11 50.5,5.5 43.5,5.5 z" style="fill:#000;stroke:none"/></svg>