<svg xmlns="http://www.w3.org/2000/svg" xmlns:svg="http://www.w3.org/2000/svg" id="svg2385" width="64" height="64" version="1.0"><path id="rect2392" d="M 10,4 L 40,4 L 54,18 L 54,60 L 10,60 L 10,4 z" style="fill:#fff;stroke:#000;stroke-width:2;stroke-linecap:round;stroke-linejoin:round"/><path id="rect3182" d="M 54,18 L 40,18 L 40,4" style="fill:none;stroke:#000;stroke-width:2;stroke-linecap:round;stroke-linejoin:round"/><path id="path2388" d="M 24,15 C 11,15 11,35 24,35 C 25.5,35 26,35 29,34 L 34,39 L 30,43 L 34,47 L 38,43 L 42,47 L 38,51 L 42,55 L 50,47 L 33,30 C 36,22.5 31.5,15 24,15 z M 24,21 C 26.5,21 28,22.5 28,25 C 28,27.5 26.5,29 24,29 C 21.5,29 20,27.5 20,25 C 20,22.5 21.5,21 24,21 z" style="fill:#ffa800;stroke:#520;stroke-width:1.5;stroke-linecap:round;stroke-linejoin:round"/></svg>