<svg xmlns="http://www.w3.org/2000/svg" xmlns:svg="http://www.w3.org/2000/svg" id="svg2385" width="64" height="64" version="1.0"><path id="rect2455" d="M 6,6 L 6,52 L 12,58 L 58,58 L 58,6 L 6,6 z" style="fill:#2a7fff;stroke:#000;stroke-width:2;stroke-linecap:round;stroke-linejoin:round"/><path id="rect2463" d="M 14,6 L 50,6 L 50,32 L 14,32 L 14,6 z" style="fill:#fff;stroke:#000;stroke-width:2;stroke-linecap:round;stroke-linejoin:round"/><path id="rect2466" d="M 18,40 L 18,58 L 46,58 L 46,40 L 18,40 z M 24,44 L 30,44 L 30,54 L 24,54 L 24,44 z" style="fill:#999;stroke:#666;stroke-width:2;stroke-linecap:round;stroke-linejoin:round"/><path id="path2432" d="M 30,10 L 34,10 L 34,17 L 41,17 L 41,21 L 34,21 L 34,28 L 30,28 L 30,21 L 23,21 L 23,17 L 30,17 L 30,10 z" style="fill:red;stroke:maroon;stroke-width:1;stroke-linecap:round;stroke-linejoin:round"/></svg>