<svg xmlns="http://www.w3.org/2000/svg" xmlns:svg="http://www.w3.org/2000/svg" id="svg2383" width="64" height="64" version="1.0"><path id="path3170" d="M 56,11 L 56,13 L 52,13 L 52,21 L 56,21 L 56,23 L 52,23 L 52,31 L 56,31 L 56,33 L 52,33 L 52,41 L 56,41 L 56,43 L 52,43 L 52,51 L 56,51 L 56,53 L 8,53 L 8,51 L 12,51 L 12,43 L 8,43 L 8,41 L 12,41 L 12,33 L 8,33 L 8,31 L 12,31 L 12,23 L 8,23 L 8,21 L 12,21 L 12,13 L 8,13 L 8,11 L 56,11 z" style="fill:#000;stroke:#000;stroke-width:1;stroke-linecap:round;stroke-linejoin:round"/><path id="rect2407" d="M 14.5,13.5 L 49.5,13.5 L 49.5,50.5 L 14.5,50.5 L 14.5,13.5 z" style="fill:#0ff;stroke:none"/><path id="rect3192" d="M 13,22 L 51,22 L 50.930435,32 L 13,32 L 13,22 z" style="fill:#ff0;stroke:#000;stroke-width:3;stroke-linecap:round;stroke-linejoin:round"/><path id="path2414" d="M 12,42 L 52,42 L 12,42 z M 28,12 L 28,52 L 28,12 z" style="fill:none;stroke:#000;stroke-width:3;stroke-linecap:round;stroke-linejoin:round"/></svg>