<svg xmlns="http://www.w3.org/2000/svg" xmlns:svg="http://www.w3.org/2000/svg" id="svg2383" width="64" height="64" version="1.0"><path id="path3279" d="M 4.5,15 L 4.5,39 L 59.5,39 L 59.5,15 L 4.5,15 z M 8.5,19 L 55.5,19 L 55.5,35 L 8.5,35 L 8.5,19 z" style="fill:red;stroke:#000;stroke-width:2;stroke-linecap:round;stroke-linejoin:round"/><path id="path3170" d="M 52,6 L 52,58 L 12,58 L 12,6 L 52,6 z" style="fill:#000;stroke:#000;stroke-width:1;stroke-linecap:round;stroke-linejoin:round"/><path id="rect2407" d="M 14.5,8.5 L 49.5,8.5 L 49.5,55.5 L 14.5,55.5 L 14.5,8.5 z" style="fill:#0ff;stroke:none"/><path id="rect3192" d="M 13,17 L 51,17 L 51,37 L 13,37 L 13,17 z" style="fill:#ff0;stroke:#000;stroke-width:3;stroke-linecap:round;stroke-linejoin:round"/><path id="path3186" d="M 28,8.5 L 28,57 L 28,8.5 z M 13,47 L 50,47 L 13,47 z M 13,27 L 50,27 L 13,27 z" style="fill:none;stroke:#000;stroke-width:3;stroke-linecap:round;stroke-linejoin:round"/></svg>