<svg xmlns="http://www.w3.org/2000/svg" xmlns:svg="http://www.w3.org/2000/svg" xmlns:xlink="http://www.w3.org/1999/xlink" id="svg2385" width="64" height="64" version="1.0"><defs id="defs2387"><linearGradient id="linearGradient2425"><stop id="stop2427" offset="0" style="stop-color:#fff;stop-opacity:1"/><stop id="stop2429" offset="1" style="stop-color:#04a;stop-opacity:1"/></linearGradient><radialGradient id="radialGradient2669" cx="-46" cy="26" r="29" fx="-46" fy="26" gradientTransform="matrix(-1.6,2,-1.9,-1.5,-13.1,146.2)" gradientUnits="userSpaceOnUse" xlink:href="#linearGradient2425"/></defs><path id="rect2380" d="M 18,17 L 46,17 C 49.5,17 52,19.5 52,23 L 52,41 C 52,44.5 49.5,47 46,47 L 18,47 C 14.5,47 12,44.5 12,41 L 12,23 C 12,19.5 14.5,17 18,17 z" style="fill:url(#radialGradient2669);stroke:#000;stroke-width:2;stroke-linecap:round;stroke-linejoin:round"/><path id="path2694" d="M 12,9 L 52,9 C 57,9 60,12 60,17 L 60,47 C 60,52 57,55 52,55 L 12,55 C 7,55 4,52 4,47 L 4,17 C 4,12 7,9 12,9 z" style="fill:none;stroke:#000;stroke-width:2;stroke-linecap:round;stroke-linejoin:round;stroke-dasharray:8,8;stroke-dashoffset:8"/></svg>