<svg xmlns="http://www.w3.org/2000/svg" xmlns:svg="http://www.w3.org/2000/svg" id="svg2383" width="64" height="64" version="1.0"><path id="path3170" d="M 43.5,11 L 43.5,7 L 45.5,7 L 45.5,57.5 L 43.5,57.5 L 43.5,53.5 L 7.5,53.5 L 7.5,57.5 L 5.5,57.5 L 5.5,7 L 7.5,7 L 7.5,11 L 43.5,11 z" style="fill:#000;stroke:#000;stroke-width:1;stroke-linecap:round;stroke-linejoin:round"/><path id="rect2407" d="M 23,13.5 L 43,13.5 L 43,51 L 23,51 L 23,13.5 z" style="fill:#0ff;stroke:none"/><path id="rect3192" d="M 8,23 L 20,23 L 20,51 L 8,51 L 8,23 z" style="fill:#2aff2a;stroke:none"/><path id="path2415" d="M 20,20.5 L 8,20.5 L 8,13.5 L 20,13.5 L 20,20.5 z" style="fill:red;stroke:none"/><path id="path3191" d="M 6.5,22 L 44.5,22 L 6.5,22 z M 6.5,32.5 L 44.5,32.5 L 6.5,32.5 z M 6.5,42.5 L 44.5,42.5 L 6.5,42.5 z" style="fill:none;stroke:#000;stroke-width:3;stroke-linecap:round;stroke-linejoin:round"/><path id="path3206" d="M 46,17 L 58.5,6.5 L 58.5,27.5 L 46,17 z" style="fill:#2aff2a;stroke:#000;stroke-width:2;stroke-linecap:round;stroke-linejoin:round"/></svg>