<svg xmlns="http://www.w3.org/2000/svg" xmlns:svg="http://www.w3.org/2000/svg" xmlns:xlink="http://www.w3.org/1999/xlink" id="svg2385" width="64" height="64" version="1.0"><defs id="defs2387"><linearGradient id="linearGradient2425"><stop id="stop2427" offset="0" style="stop-color:#fff;stop-opacity:1"/><stop id="stop2429" offset="1" style="stop-color:#04a;stop-opacity:1"/></linearGradient><radialGradient id="radialGradient2431" cx="-50" cy="25" r="29" fx="-50" fy="25" gradientTransform="matrix(-1.6,2,-1.9,-1.5,-19.1,157.2)" gradientUnits="userSpaceOnUse" xlink:href="#linearGradient2425"/></defs><path id="rect2433" d="M 8,10 L 56,10 C 58,10 60,12 60,14 L 60,50 C 60,52 58,54 56,54 L 8,54 C 6,54 4,52 4,50 L 4,14 C 4,12 6,10 8,10 z" style="fill:url(#radialGradient2431);stroke:#000;stroke-width:2;stroke-linecap:round;stroke-linejoin:round"/><path id="path2546" d="M 48,32 C 48,53 16,53 16,32 C 16,11 48,11 48,32 z" style="fill:#0000d4;stroke:#000;stroke-width:2;stroke-linecap:round;stroke-linejoin:round"/><path id="rect2553" d="M 29,23 C 29,27 35,27 35,23 C 35,19 29,19 29,23 z M 29,30 L 29,44 L 35,44 L 35,30 L 29,30 z" style="fill:#fff;stroke:none"/></svg>