<svg xmlns="http://www.w3.org/2000/svg" xmlns:svg="http://www.w3.org/2000/svg" xmlns:xlink="http://www.w3.org/1999/xlink" id="svg2385" width="64" height="64" version="1.0"><defs id="defs2387"><linearGradient id="linearGradient2406"><stop id="stop2408" offset="0" style="stop-color:#81ff81;stop-opacity:1"/><stop id="stop2410" offset=".467" style="stop-color:#1a0;stop-opacity:1"/><stop id="stop2412" offset="1" style="stop-color:#226000;stop-opacity:1"/></linearGradient><linearGradient id="linearGradient2398"><stop id="stop2400" offset="0" style="stop-color:#81ff81;stop-opacity:1"/><stop id="stop2402" offset=".499" style="stop-color:#1a0;stop-opacity:1"/><stop id="stop2404" offset="1" style="stop-color:#226000;stop-opacity:1"/></linearGradient><radialGradient id="radialGradient2456" cx="25.167" cy="24" r="8.5" fx="25.167" fy="24" gradientTransform="matrix(-0.8823528,-0.8823527,0.882353,-0.882353,41.029281,60.382343)" gradientUnits="userSpaceOnUse" xlink:href="#linearGradient2406"/><radialGradient id="radialGradient2458" cx="7.121" cy="6.475" r="8.5" fx="7.121" fy="6.475" gradientTransform="matrix(1.1764706,-3.8823529,1.1754856,0.3562077,21.511855,75.337956)" gradientUnits="userSpaceOnUse" xlink:href="#linearGradient2398"/><radialGradient id="radialGradient2422" cx="7.121" cy="6.475" r="8.5" fx="7.121" fy="6.475" gradientTransform="matrix(0.9411765,-3.1058823,0.9403885,0.2849662,11.709459,65.720365)" gradientUnits="userSpaceOnUse" xlink:href="#linearGradient2398"/><radialGradient id="radialGradient2424" cx="25.167" cy="24" r="8.5" fx="25.167" fy="24" gradientTransform="matrix(-0.7058822,-0.7058822,0.7058824,-0.7058824,27.3234,53.755874)" gradientUnits="userSpaceOnUse" xlink:href="#linearGradient2406"/><radialGradient id="radialGradient2430" cx="7.121" cy="6.475" r="8.5" fx="7.121" fy="6.475" gradientTransform="matrix(0.7058824,-2.3294117,0.7052914,0.2137246,3.9070628,56.102774)" gradientUnits="userSpaceOnUse" xlink:href="#linearGradient2398"/><radialGradient id="radialGradient2432" cx="25.167" cy="24" r="8.5" fx="25.167" fy="24" gradientTransform="matrix(-0.5294117,-0.5294116,0.5294118,-0.5294118,15.617519,47.129406)" gradientUnits="userSpaceOnUse" xlink:href="#linearGradient2406"/></defs><path id="path2426" d="M 16.5,25.9 L 9,40.3 C 8.1,42.1 12.3,43.9 16.5,43.9 C 20.7,43.9 24.9,42.1 24,40.3 L 16.5,25.9 z" style="fill:url(#radialGradient2430);stroke:#000;stroke-width:.60000002;stroke-linecap:round;stroke-linejoin:round"/><path id="path2428" d="M 22.5,22.6 C 22.5,25.9 19.8,28.6 16.5,28.6 C 13.2,28.6 10.5,25.9 10.5,22.6 C 10.5,19.3 13.2,16.6 16.5,16.6 C 19.8,16.6 22.5,19.3 22.5,22.6 z" style="fill:url(#radialGradient2432);stroke:#000;stroke-width:.60000002;stroke-linecap:round;stroke-linejoin:round"/><path id="path2414" d="M 28.5,25.45 L 18.5,44.65 C 17.3,47.05 22.9,49.45 28.5,49.45 C 34.1,49.45 39.7,47.05 38.5,44.65 L 28.5,25.45 z" style="fill:url(#radialGradient2422);stroke:#000;stroke-width:.80000001;stroke-linecap:round;stroke-linejoin:round"/><path id="path2416" d="M 36.5,21.05 C 36.5,25.45 32.9,29.05 28.5,29.05 C 24.1,29.05 20.5,25.45 20.5,21.05 C 20.5,16.65 24.1,13.05 28.5,13.05 C 32.9,13.05 36.5,16.65 36.5,21.05 z" style="fill:url(#radialGradient2424);stroke:#000;stroke-width:.80000001;stroke-linecap:round;stroke-linejoin:round"/><path id="path2393" d="M 42.5,25 L 30,49 C 28.5,52 35.5,55 42.5,55 C 49.5,55 56.5,52 55,49 L 42.5,25 z" style="fill:url(#radialGradient2458);stroke:#000;stroke-width:1;stroke-linecap:round;stroke-linejoin:round"/><path id="path2384" d="M 52.5,19.5 C 52.5,25 48,29.5 42.5,29.5 C 37,29.5 32.5,25 32.5,19.5 C 32.5,14 37,9.5 42.5,9.5 C 48,9.5 52.5,14 52.5,19.5 z" style="fill:url(#radialGradient2456);stroke:#000;stroke-width:1;stroke-linecap:round;stroke-linejoin:round"/></svg>