<svg xmlns="http://www.w3.org/2000/svg" xmlns:svg="http://www.w3.org/2000/svg" xmlns:xlink="http://www.w3.org/1999/xlink" id="svg2385" width="64" height="64" version="1.0"><defs id="defs2387"><linearGradient id="linearGradient2425"><stop id="stop2427" offset="0" style="stop-color:#fff;stop-opacity:1"/><stop id="stop2429" offset="1" style="stop-color:#04a;stop-opacity:1"/></linearGradient><radialGradient id="radialGradient2431" cx="-52" cy="31" r="29" fx="-52" fy="31" gradientTransform="matrix(-1.6,2,-1.9,-1.5,-19.1,157.2)" gradientUnits="userSpaceOnUse" xlink:href="#linearGradient2425"/></defs><path id="rect2383" d="M 6,50 L 58,50 L 58,58 L 6,58 L 6,50 z" style="fill:none;stroke:#000;stroke-width:1;stroke-linecap:round;stroke-linejoin:round"/><path id="rect3167" d="M 20,50 L 34,50 L 34,58 L 20,58 L 20,50 z" style="fill:red;stroke:#000;stroke-width:1;stroke-linecap:round;stroke-linejoin:round"/><path id="rect2380" d="M 12,6 L 40,6 C 43.5,6 46,8.5 46,12 L 46,30 C 46,33.5 43.5,36 40,36 L 12,36 C 8.5,36 6,33.5 6,30 L 6,12 C 6,8.5 8.5,6 12,6 z" style="fill:url(#radialGradient2431);stroke:#000;stroke-width:2;stroke-linecap:round;stroke-linejoin:round"/><path id="path3170" d="M 27,50 L 34,43 L 29,43 L 29,36 L 25,36 L 25,43 L 20,43 L 27,50 z" style="fill:#0cf;stroke:#000;stroke-width:1;stroke-linecap:round;stroke-linejoin:round"/></svg>