<svg xmlns="http://www.w3.org/2000/svg" xmlns:svg="http://www.w3.org/2000/svg" id="svg2385" width="64" height="64" version="1.0"><path id="path2382" d="M 32,3 C 28.5,3 26,4 26,5 C 26,6 27.5,6.5 30,7 L 30,9 C 18,10 6,21 6,35 C 6,49 18,61 32,61 C 46,61 58,49 58,35 C 58,21 46,10 34,9 L 34,7 C 36.5,6.5 38,6 38,5 C 38,4 35.5,3 32,3 z" style="fill:gray;stroke:#000;stroke-width:1;stroke-linecap:round;stroke-linejoin:round"/><path id="path2391" d="M 53,35 C 52.927507,46 43.003197,56 32,56 C 21,56 11,46 11,35 C 11,24 21,14 32,14 C 43,14 53.072493,24.000038 53,35 z" style="fill:#06f;stroke:#003380;stroke-width:2;stroke-linecap:round;stroke-linejoin:round"/><path id="path2394" d="M 48,35 C 48,44 41,51 32,51 C 23,51 16,44 16,35 C 16,26 23,19 32,19 C 41,19 48,26 48,35 z" style="fill:#fff;stroke:none;stroke-width:1;stroke-linecap:round;stroke-linejoin:round"/><path id="path2401" d="M 40,32 L 32,35 L 32,22" style="fill:none;stroke:#000;stroke-width:3;stroke-linecap:round;stroke-linejoin:round"/></svg>