<svg xmlns="http://www.w3.org/2000/svg" xmlns:svg="http://www.w3.org/2000/svg" id="svg2385" width="64" height="64" version="1.0"><path id="path4824" d="M 33.8125,13.125 C 29.90625,13.222656 26,14 26,14 C 29,16 30,19 28,22 L 46,20 C 46,20 42,15 40,14 C 38.5,13.25 36.15625,13.066406 33.8125,13.125 z M 6,20 C 8,30 8,34 6,44 C 10,38 12,35.5 16,36 C 12,35.5 12,28.5 16,28 C 12,28.5 10,26 6,20 z M 20,36 C 19,40 17,42.5 20,42.5 C 22,42.5 24,46 26.5,42.5 L 20,36 z M 48,42 L 40,44 C 36,51 36,51.5 44,47.5 C 47,46 46,46 48,42 z" style="fill:#ff7f2a;stroke:#000;stroke-width:1;stroke-linecap:round;stroke-linejoin:round"/><path id="path2380" d="M 37.8125,19.4375 C 35.845658,19.483325 33.886116,19.685647 32,20 C 20,22 26.055793,26.563458 16,28 C 12,28.5 12,35.5 16,36 C 26.055793,37.436542 20,42 32,44 C 41.711879,45.618647 54,44 60,34 L 52,32 L 60,30 C 55.125,21.875 46.335482,19.238927 37.8125,19.4375 z" style="fill:#f60;stroke:#000;stroke-width:1;stroke-linecap:round;stroke-linejoin:round"/><path id="path2389" d="M 52,26 C 52,27.104 51.104,28 50,28 C 48.896,28 48,27.104 48,26 C 48,24.896 48.896,24 50,24 C 51.104,24 52,24.896 52,26 z" style="fill:#000;stroke:none"/><g id="g5007" transform="translate(48,0)" style="fill:#f95"><path id="path4968" d="M -30.5,30 C -33.5,30 -33.5,34 -30.5,34" style="fill:#f95;stroke:#000;stroke-width:.25;stroke-linecap:round;stroke-linejoin:round"/><path id="path4960" d="M -28.5,28 C -31.5,28 -31.5,32 -28.5,32" style="fill:#f95;stroke:#000;stroke-width:.25;stroke-linecap:round;stroke-linejoin:round"/><path id="path4962" d="M -28.5,32 C -31.5,32 -31.5,36 -28.5,36" style="fill:#f95;stroke:#000;stroke-width:.25;stroke-linecap:round;stroke-linejoin:round"/><path id="path4936" d="M -26.5,27 C -29.5,27 -29.5,30 -26.5,30" style="fill:#f95;stroke:#000;stroke-width:.25;stroke-linecap:round;stroke-linejoin:round"/><path id="path4940" d="M -26.5,30 C -29.5,30 -29.5,34 -26.5,34" style="fill:#f95;stroke:#000;stroke-width:.25;stroke-linecap:round;stroke-linejoin:round"/><path id="path4964" d="M -26.5,34 C -29.5,34 -29.5,37 -26.5,37" style="fill:#f95;stroke:#000;stroke-width:.25;stroke-linecap:round;stroke-linejoin:round"/><path id="path4942" d="M -24.5,28 C -27.5,28 -27.5,32 -24.5,32" style="fill:#f95;stroke:#000;stroke-width:.25;stroke-linecap:round;stroke-linejoin:round"/><path id="path4944" d="M -24.5,32 C -27.5,32 -27.5,36 -24.5,36" style="fill:#f95;stroke:#000;stroke-width:.25;stroke-linecap:round;stroke-linejoin:round"/><path id="path4920" d="M -22.5,26 C -25.5,26 -25.5,30 -22.5,30" style="fill:#f95;stroke:#000;stroke-width:.25;stroke-linecap:round;stroke-linejoin:round"/><path id="path4926" d="M -22.5,34 C -25.5,34 -25.5,38 -22.5,38" style="fill:#f95;stroke:#000;stroke-width:.25;stroke-linecap:round;stroke-linejoin:round"/><path id="path4958" d="M -22.5,30 C -25.5,30 -25.5,34 -22.5,34" style="fill:#f95;stroke:#000;stroke-width:.25;stroke-linecap:round;stroke-linejoin:round"/><path id="path4922" d="M -20.5,24 C -23.5,24 -23.5,28 -20.5,28" style="fill:#f95;stroke:#000;stroke-width:.25;stroke-linecap:round;stroke-linejoin:round"/><path id="path4924" d="M -20.5,28 C -23.5,28 -23.5,32 -20.5,32" style="fill:#f95;stroke:#000;stroke-width:.25;stroke-linecap:round;stroke-linejoin:round"/><path id="path4928" d="M -20.5,32 C -23.5,32 -23.5,36 -20.5,36" style="fill:#f95;stroke:#000;stroke-width:.25;stroke-linecap:round;stroke-linejoin:round"/><path id="path4932" d="M -20.5,36 C -23.5,36 -23.5,40 -20.5,40" style="fill:#f95;stroke:#000;stroke-width:.25;stroke-linecap:round;stroke-linejoin:round"/><path id="path4896" d="M -18.5,22 C -21.5,22 -21.5,26 -18.5,26" style="fill:#f95;stroke:#000;stroke-width:.25;stroke-linecap:round;stroke-linejoin:round"/><path id="path4900" d="M -18.5,26 C -21.5,26 -21.5,30 -18.5,30" style="fill:#f95;stroke:#000;stroke-width:.25;stroke-linecap:round;stroke-linejoin:round"/><path id="path4906" d="M -18.5,34 C -21.5,34 -21.5,38 -18.5,38" style="fill:#f95;stroke:#000;stroke-width:.25;stroke-linecap:round;stroke-linejoin:round"/><path id="path4910" d="M -18.5,38 C -21.5,38 -21.5,42 -18.5,42" style="fill:#f95;stroke:#000;stroke-width:.25;stroke-linecap:round;stroke-linejoin:round"/><path id="path4956" d="M -18.5,30 C -21.5,30 -21.5,34 -18.5,34" style="fill:#f95;stroke:#000;stroke-width:.25;stroke-linecap:round;stroke-linejoin:round"/><path id="path4898" d="M -16.5,20.5 C -19.5,20.5 -19.5,24 -16.5,24" style="fill:#f95;stroke:#000;stroke-width:.25;stroke-linecap:round;stroke-linejoin:round"/><path id="path4902" d="M -16.5,24 C -19.5,24 -19.5,28 -16.5,28" style="fill:#f95;stroke:#000;stroke-width:.25;stroke-linecap:round;stroke-linejoin:round"/><path id="path4904" d="M -16.5,28 C -19.5,28 -19.5,32 -16.5,32" style="fill:#f95;stroke:#000;stroke-width:.25;stroke-linecap:round;stroke-linejoin:round"/><path id="path4908" d="M -16.5,32 C -19.5,32 -19.5,36 -16.5,36" style="fill:#f95;stroke:#000;stroke-width:.25;stroke-linecap:round;stroke-linejoin:round"/><path id="path4912" d="M -16.5,36 C -19.5,36 -19.5,40 -16.5,40" style="fill:#f95;stroke:#000;stroke-width:.25;stroke-linecap:round;stroke-linejoin:round"/><path id="path4914" d="M -16.5,40 C -19.5,40 -19.5,43.5 -16.5,43.5" style="fill:#f95;stroke:#000;stroke-width:.25;stroke-linecap:round;stroke-linejoin:round"/><path id="path4841" d="M -14.5,30 C -17.5,30 -17.5,34 -14.5,34" style="fill:#f95;stroke:#000;stroke-width:.25;stroke-linecap:round;stroke-linejoin:round"/><path id="path4876" d="M -14.5,22 C -17.5,22 -17.5,26 -14.5,26" style="fill:#f95;stroke:#000;stroke-width:.25;stroke-linecap:round;stroke-linejoin:round"/><path id="path4880" d="M -14.5,26 C -17.5,26 -17.5,30 -14.5,30" style="fill:#f95;stroke:#000;stroke-width:.25;stroke-linecap:round;stroke-linejoin:round"/><path id="path4886" d="M -14.5,34 C -17.5,34 -17.5,38 -14.5,38" style="fill:#f95;stroke:#000;stroke-width:.25;stroke-linecap:round;stroke-linejoin:round"/><path id="path4890" d="M -14.5,38 C -17.5,38 -17.5,42 -14.5,42" style="fill:#f95;stroke:#000;stroke-width:.25;stroke-linecap:round;stroke-linejoin:round"/><path id="path4878" d="M -12.5,20 C -15.5,20 -15.5,24 -12.5,24" style="fill:#f95;stroke:#000;stroke-width:.25;stroke-linecap:round;stroke-linejoin:round"/><path id="path4882" d="M -12.5,24 C -15.5,24 -15.5,28 -12.5,28" style="fill:#f95;stroke:#000;stroke-width:.25;stroke-linecap:round;stroke-linejoin:round"/><path id="path4884" d="M -12.5,28 C -15.5,28 -15.5,32 -12.5,32" style="fill:#f95;stroke:#000;stroke-width:.25;stroke-linecap:round;stroke-linejoin:round"/><path id="path4888" d="M -12.5,32 C -15.5,32 -15.5,36 -12.5,36" style="fill:#f95;stroke:#000;stroke-width:.25;stroke-linecap:round;stroke-linejoin:round"/><path id="path4892" d="M -12.5,36 C -15.5,36 -15.5,40 -12.5,40" style="fill:#f95;stroke:#000;stroke-width:.25;stroke-linecap:round;stroke-linejoin:round"/><path id="path4894" d="M -12.5,40 C -15.5,40 -15.5,44 -12.5,44" style="fill:#f95;stroke:#000;stroke-width:.25;stroke-linecap:round;stroke-linejoin:round"/><path id="path4865" d="M -10.5,22 C -13.5,22 -13.5,26 -10.5,26" style="fill:#f95;stroke:#000;stroke-width:.25;stroke-linecap:round;stroke-linejoin:round"/><path id="path4867" d="M -10.5,26 C -13.5,26 -13.5,30 -10.5,30" style="fill:#f95;stroke:#000;stroke-width:.25;stroke-linecap:round;stroke-linejoin:round"/><path id="path4869" d="M -10.5,30 C -13.5,30 -13.5,34 -10.5,34" style="fill:#f95;stroke:#000;stroke-width:.25;stroke-linecap:round;stroke-linejoin:round"/><path id="path4871" d="M -10.5,34 C -13.5,34 -13.5,38 -10.5,38" style="fill:#f95;stroke:#000;stroke-width:.25;stroke-linecap:round;stroke-linejoin:round"/><path id="path4873" d="M -10.5,38 C -13.5,38 -13.5,42 -10.5,42" style="fill:#f95;stroke:#000;stroke-width:.25;stroke-linecap:round;stroke-linejoin:round"/><path id="path4843" d="M -8.5,24 C -11.5,24 -11.5,28 -8.5,28" style="fill:#f95;stroke:#000;stroke-width:.25;stroke-linecap:round;stroke-linejoin:round"/><path id="path4845" d="M -8.5,28 C -11.5,28 -11.5,32 -8.5,32" style="fill:#f95;stroke:#000;stroke-width:.25;stroke-linecap:round;stroke-linejoin:round"/><path id="path4847" d="M -8.5,32 C -11.5,32 -11.5,36 -8.5,36" style="fill:#f95;stroke:#000;stroke-width:.25;stroke-linecap:round;stroke-linejoin:round"/><path id="path4849" d="M -8.5,36 C -11.5,36 -11.5,40 -8.5,40" style="fill:#f95;stroke:#000;stroke-width:.25;stroke-linecap:round;stroke-linejoin:round"/><path id="path4851" d="M -8.5,40 C -11.5,40 -11.5,44 -8.5,44" style="fill:#f95;stroke:#000;stroke-width:.25;stroke-linecap:round;stroke-linejoin:round"/><path id="path4970" d="M -8.5,20 C -11.5,20 -11.5,24 -8.5,24" style="fill:#f95;stroke:#000;stroke-width:.25;stroke-linecap:round;stroke-linejoin:round"/><path id="path4972" d="M -6.5,38 C -9.5,38 -9.5,42 -6.5,42" style="fill:#f95;stroke:#000;stroke-width:.25;stroke-linecap:round;stroke-linejoin:round"/><path id="path4974" d="M -6.5,22 C -9.5,22 -9.5,26 -6.5,26" style="fill:#f95;stroke:#000;stroke-width:.25;stroke-linecap:round;stroke-linejoin:round"/><path id="path4976" d="M -4.5,20.5 C -7.5,20.5 -7.5,24 -4.5,24" style="fill:#f95;stroke:#000;stroke-width:.25;stroke-linecap:round;stroke-linejoin:round"/><path id="path4978" d="M -4.5,40 C -7.5,40 -7.5,43.5 -4.5,43.5" style="fill:#f95;stroke:#000;stroke-width:.25;stroke-linecap:round;stroke-linejoin:round"/><path id="path4980" d="M -6,37.5 C -7.027579,38.647074 -6.700472,40 -4.5,40" style="fill:#f95;stroke:#000;stroke-width:.25;stroke-linecap:round;stroke-linejoin:round"/><path id="path4982" d="M -4.5,24 C -6.629181,24 -6.893094,25.330287 -6,26.5" style="fill:#f95;stroke:#000;stroke-width:.25;stroke-linecap:round;stroke-linejoin:round"/></g><path id="path2401" d="M 46,26 C 38,24 38,40 46,38" style="fill:#f60;stroke:#000;stroke-width:1;stroke-linecap:round;stroke-linejoin:round"/></svg>