<svg xmlns="http://www.w3.org/2000/svg" xmlns:svg="http://www.w3.org/2000/svg" xmlns:xlink="http://www.w3.org/1999/xlink" id="svg2385" width="64" height="64" version="1.0"><defs id="defs2387"><linearGradient id="linearGradient2425"><stop id="stop2427" offset="0" style="stop-color:#fff;stop-opacity:1"/><stop id="stop2429" offset="1" style="stop-color:#04a;stop-opacity:1"/></linearGradient><radialGradient id="radialGradient2431" cx="-46" cy="26" r="29" fx="-46" fy="26" gradientTransform="matrix(-1.6,2,-1.9,-1.5,-19.1,157.2)" gradientUnits="userSpaceOnUse" xlink:href="#linearGradient2425"/></defs><path id="rect2383" d="M 6,6 L 58,6 L 58,14 L 6,14 L 6,6 z" style="fill:none;stroke:#000;stroke-width:1;stroke-linecap:round;stroke-linejoin:round"/><path id="path3293" d="M 34,6 L 34,14" style="fill:none;stroke:#000;stroke-width:1;stroke-linecap:round;stroke-linejoin:round"/><path id="rect3167" d="M 6,6 L 20,6 L 20,14 L 6,14 L 6,6 z" style="fill:#2aff2a;stroke:#000;stroke-width:1;stroke-linecap:round;stroke-linejoin:round"/><path id="path3170" d="M 13,28 L 20,21 L 15,21 L 15,14 L 11,14 L 11,21 L 6,21 L 13,28 z" style="fill:#0cf;stroke:#000;stroke-width:1;stroke-linecap:round;stroke-linejoin:round"/><path id="rect2380" d="M 12,28 L 40,28 C 43.5,28 46,30.5 46,34 L 46,52 C 46,55.5 43.5,58 40,58 L 12,58 C 8.5,58 6,55.5 6,52 L 6,34 C 6,30.5 8.5,28 12,28 z" style="fill:url(#radialGradient2431);stroke:#000;stroke-width:2;stroke-linecap:round;stroke-linejoin:round"/><path id="path3251" d="M 38,43 L 29,34 L 29,40 L 14,40 L 14,46 L 29,46 L 29,52 L 38,43 z" style="fill:#0cf;stroke:#000;stroke-width:1;stroke-linecap:round;stroke-linejoin:round"/></svg>