<svg xmlns="http://www.w3.org/2000/svg" xmlns:svg="http://www.w3.org/2000/svg" id="svg2385" width="64" height="64" version="1.0"><path id="path3227" d="M 54,54 L 22,24 L 54,10" style="fill:none;stroke:#803300;stroke-width:3;stroke-linecap:round;stroke-linejoin:round"/><path id="path3232" d="M 15.5,17.5 L 15.5,30.5 L 28.5,30.5 L 28.5,17.5 L 15.5,17.5 z" style="fill:none;stroke:#000;stroke-width:2;stroke-linecap:round;stroke-linejoin:round;stroke-dasharray:2,4;stroke-dashoffset:4"/><path id="path3159" d="M 6,40 L 14,48 L 6,56 L 10,60 L 18,52 L 26,60 L 30,56 L 22,48 L 30,40 L 26,36 L 18,44 L 10,36 L 6,40 z" style="fill:red;stroke:#803300;stroke-width:2;stroke-linecap:round;stroke-linejoin:round"/><path id="path2386" d="M 49.5,5.5 L 49.5,14.5 L 58.5,14.5 L 58.5,5.5 L 49.5,5.5 z M 49.5,49.5 L 49.5,58.5 L 58.5,58.5 L 58.5,49.5 L 49.5,49.5 z" style="fill:#fff;stroke:red;stroke-width:3;stroke-linecap:round;stroke-linejoin:round"/></svg>