<svg xmlns="http://www.w3.org/2000/svg" xmlns:svg="http://www.w3.org/2000/svg" id="svg2385" width="64" height="64" version="1.0"><path id="path3166" d="M 11.5,10 L 49,10 L 11.5,10 z M 15,54 L 52.5,54 L 15,54 z" style="fill:none;stroke:#e08040;stroke-width:3;stroke-linecap:round;stroke-linejoin:round"/><path id="path2385" d="M 15,54 C 79,54 -15,10 49,10" style="fill:none;stroke:#803300;stroke-width:3;stroke-linecap:round;stroke-linejoin:round"/><path id="path2390" d="M 49.5,5.5 L 49.5,14.5 L 58.5,14.5 L 58.5,5.5 L 49.5,5.5 z M 8.5,8.5 L 8.5,11.5 L 11.5,11.5 L 11.5,8.5 L 8.5,8.5 z M 5.5,49.5 L 5.5,58.5 L 14.5,58.5 L 14.5,49.5 L 5.5,49.5 z M 52.5,52.5 L 52.5,55.5 L 55.5,55.5 L 55.5,52.5 L 52.5,52.5 z" style="fill:#fff;stroke:red;stroke-width:3;stroke-linecap:round;stroke-linejoin:round"/></svg>