<svg xmlns="http://www.w3.org/2000/svg" xmlns:svg="http://www.w3.org/2000/svg" id="svg2383" width="64" height="64" version="1.0"><path id="path3156" d="M 4,60 L 60,4" style="fill:none;stroke:#803300;stroke-width:3;stroke-linecap:round;stroke-linejoin:round"/><path id="rect2448" d="M 19,36 L 19,28 L 12,28 L 12,22 L 2,32 L 12,42 L 12,36 L 19,36 z M 28,19 L 36,19 L 36,12 L 42,12 L 32,2 L 22,12 L 28,12 L 28,19 z M 45,28 L 45,36 L 52,36 L 52,42 L 62,32 L 52,22 L 52,28 L 45,28 z M 36,45 L 28,45 L 28,52 L 22,52 L 32,62 L 42,52 L 36,52 L 36,45 z" style="fill:#80b3ff;stroke:#002060;stroke-width:2;stroke-linecap:round;stroke-linejoin:round"/><path id="rect2385" d="M 27.5,27.5 L 36.5,27.5 L 36.5,36.5 L 27.5,36.5 L 27.5,27.5 z" style="fill:#fff;stroke:red;stroke-width:3;stroke-linecap:round;stroke-linejoin:round"/></svg>